<?xml version="1.0" encoding="utf-8"?>
<!-- Generator: Adobe Illustrator 19.0.0, SVG Export Plug-In . SVG Version: 6.00 Build 0)  -->
<svg version="1.1" id="Layer_1" xmlns="http://www.w3.org/2000/svg" xmlns:xlink="http://www.w3.org/1999/xlink" x="0px" y="0px"
	 viewBox="-402 208 154 145" style="enable-background:new -402 208 154 145;" xml:space="preserve">
<style type="text/css">
	.st0{fill:none;}
	.st1{fill:#088BBD;}
	.st2{fill:#30D0C7;}
</style>
<g id="Group_156" transform="translate(-3689 406)">
	<g id="Group_155">
		<rect id="Rectangle_66" x="3287" y="-198" class="st0" width="154" height="145"/>
		<g id="Group_148" transform="translate(3709 -405)">
			<g id="Group_51">
				<g id="Group_50" transform="translate(0)">
					<path id="Path_68" class="st1" d="M-299.3,208h-90.7c-6.6,0-11.9,5.3-11.9,11.9v119.4c0,6.6,5.3,11.9,11.9,11.9h90.7
						c6.6,0,11.9-5.3,11.9-11.9V219.9C-287.4,213.3-292.7,208-299.3,208z M-368.6,212.8h47.8v4.8h-47.8V212.8z M-301.7,222.3v23.9
						h-86v-23.9H-301.7z M-292.2,339.3c0,4-3.2,7.2-7.2,7.2h-90.7c-4,0-7.2-3.2-7.2-7.2c0,0,0,0,0,0V219.9c0-4,3.2-7.2,7.2-7.2
						c0,0,0,0,0,0h16.7v4.8h-16.7c-1.3,0-2.4,1.1-2.4,2.4v28.6c0,1.3,1.1,2.4,2.4,2.4l0,0h90.7c1.3,0,2.4-1.1,2.4-2.4l0,0v-28.6
						c0-1.3-1.1-2.4-2.4-2.4l0,0H-316v-4.8h16.7c4,0,7.2,3.2,7.2,7.2L-292.2,339.3z"/>
				</g>
			</g>
			<g id="Group_53" transform="translate(45.363 47.75)">
				<g id="Group_52" transform="translate(0)">
					<path id="Path_69" class="st1" d="M-390.1,208c-6.6,0-11.9,5.3-11.9,11.9s5.3,11.9,11.9,11.9c6.6,0,11.9-5.3,11.9-11.9
						S-383.5,208-390.1,208L-390.1,208z M-390.1,227.1c-4,0-7.2-3.2-7.2-7.2s3.2-7.2,7.2-7.2s7.2,3.2,7.2,7.2v0
						C-382.9,223.9-386.1,227.1-390.1,227.1C-390.1,227.1-390.1,227.1-390.1,227.1z"/>
				</g>
			</g>
			<g id="Group_55" transform="translate(76.401 47.75)">
				<g id="Group_54" transform="translate(0)">
					<path id="Path_70" class="st1" d="M-390.1,208c-6.6,0-11.9,5.3-11.9,11.9s5.3,11.9,11.9,11.9c6.6,0,11.9-5.3,11.9-11.9
						c0,0,0,0,0,0C-378.1,213.3-383.5,208-390.1,208z M-390.1,227.1c-4,0-7.2-3.2-7.2-7.2s3.2-7.2,7.2-7.2c4,0,7.2,3.2,7.2,7.2v0
						C-382.9,223.9-386.1,227.1-390.1,227.1z"/>
				</g>
			</g>
			<g id="Group_57" transform="translate(14.325 47.75)">
				<g id="Group_56" transform="translate(0)">
					<path id="Path_71" class="st1" d="M-390.1,208c-6.6,0-11.9,5.3-11.9,11.9s5.3,11.9,11.9,11.9c6.6,0,11.9-5.3,11.9-11.9
						S-383.5,208-390.1,208L-390.1,208z M-390.1,227.1c-4,0-7.2-3.2-7.2-7.2c0-4,3.2-7.2,7.2-7.2c4,0,7.2,3.2,7.2,7.2l0,0
						C-382.9,223.9-386.1,227.1-390.1,227.1C-390.1,227.1-390.1,227.1-390.1,227.1z"/>
				</g>
			</g>
			<g id="Group_59" transform="translate(45.363 76.401)">
				<g id="Group_58" transform="translate(0 0)">
					<path id="Path_72" class="st1" d="M-390.1,208c-6.6,0-11.9,5.3-11.9,11.9c0,6.6,5.3,11.9,11.9,11.9c6.6,0,11.9-5.3,11.9-11.9
						l0,0C-378.1,213.3-383.5,208-390.1,208z M-390.1,227.1c-4,0-7.2-3.2-7.2-7.2s3.2-7.2,7.2-7.2s7.2,3.2,7.2,7.2l0,0
						C-382.9,223.9-386.1,227.1-390.1,227.1C-390.1,227.1-390.1,227.1-390.1,227.1z"/>
				</g>
			</g>
			<g id="Group_61" transform="translate(76.401 76.401)">
				<g id="Group_60" transform="translate(0 0)">
					<path id="Path_73" class="st1" d="M-390.1,208c-6.6,0-11.9,5.3-11.9,11.9s5.3,11.9,11.9,11.9s11.9-5.3,11.9-11.9v0
						C-378.1,213.3-383.5,208-390.1,208z M-390.1,227.1c-4,0-7.2-3.2-7.2-7.2s3.2-7.2,7.2-7.2c4,0,7.2,3.2,7.2,7.2l0,0
						C-382.9,223.9-386.1,227.1-390.1,227.1z"/>
				</g>
			</g>
			<g id="Group_63" transform="translate(14.325 76.401)">
				<g id="Group_62" transform="translate(0 0)">
					<path id="Path_74" class="st1" d="M-390.1,208c-6.6,0-11.9,5.3-11.9,11.9c0,6.6,5.3,11.9,11.9,11.9c6.6,0,11.9-5.3,11.9-11.9
						l0,0C-378.1,213.3-383.5,208-390.1,208z M-390.1,227.1c-4,0-7.2-3.2-7.2-7.2c0-4,3.2-7.2,7.2-7.2c4,0,7.2,3.2,7.2,7.2l0,0
						C-382.9,223.9-386.1,227.1-390.1,227.1C-390.1,227.1-390.1,227.1-390.1,227.1z"/>
				</g>
			</g>
			<g id="Group_65" transform="translate(45.363 105.051)">
				<g id="Group_64" transform="translate(0 0)">
					<path id="Path_75" class="st1" d="M-390.1,208c-6.6,0-11.9,5.3-11.9,11.9c0,6.6,5.3,11.9,11.9,11.9c6.6,0,11.9-5.3,11.9-11.9
						l0,0C-378.1,213.3-383.5,208-390.1,208z M-390.1,227.1c-4,0-7.2-3.2-7.2-7.2s3.2-7.2,7.2-7.2s7.2,3.2,7.2,7.2l0,0
						C-382.9,223.9-386.1,227.1-390.1,227.1C-390.1,227.1-390.1,227.1-390.1,227.1z"/>
				</g>
			</g>
			<g id="Group_67" transform="translate(14.325 105.051)">
				<g id="Group_66" transform="translate(0 0)">
					<path id="Path_76" class="st1" d="M-390.1,208c-6.6,0-11.9,5.3-11.9,11.9c0,6.6,5.3,11.9,11.9,11.9c6.6,0,11.9-5.3,11.9-11.9
						l0,0C-378.1,213.3-383.5,208-390.1,208z M-390.1,227.1c-4,0-7.2-3.2-7.2-7.2c0-4,3.2-7.2,7.2-7.2c4,0,7.2,3.2,7.2,7.2l0,0
						C-382.9,223.9-386.1,227.1-390.1,227.1C-390.1,227.1-390.1,227.1-390.1,227.1z"/>
				</g>
			</g>
			<g id="Group_69" transform="translate(76.401 105.051)">
				<g id="Group_68" transform="translate(0 0)">
					<path id="Path_77" class="st2" d="M-380.5,208h-19.1c-1.3,0-2.4,1.1-2.4,2.4l0,0v23.9c0,1.3,1.1,2.4,2.4,2.4l0,0h19.1
						c1.3,0,2.4-1.1,2.4-2.4l0,0v-23.9C-378.1,209.1-379.2,208-380.5,208L-380.5,208z M-382.9,231.9h-14.3v-19.1h14.3V231.9z"/>
				</g>
			</g>
			<g id="Group_71" transform="translate(81.176 29.066)">
				<g id="Group_70" transform="translate(0 0)">
					<rect id="Rectangle_39" x="-402" y="208" class="st1" width="5.2" height="4.2"/>
				</g>
			</g>
			<g id="Group_73" transform="translate(90.518 29.066)">
				<g id="Group_72" transform="translate(0 0)">
					<rect id="Rectangle_40" x="-402" y="208" class="st1" width="5.2" height="4.2"/>
				</g>
			</g>
			<g id="Group_75" transform="translate(19.1 19.1)">
				<g id="Group_74" transform="translate(0 0)">
					<path id="Path_78" class="st2" d="M-392.4,212.8V208h-4.8v4.8h-4.8v4.8h4.8v4.8h4.8v-4.8h4.8v-4.8H-392.4z"/>
				</g>
			</g>
			<g id="Group_77" transform="translate(85.95 121.764)">
				<g id="Group_76" transform="translate(0 0)">
					<path id="Path_79" class="st2" d="M-397.2,208h-2.4c-1.3,0-2.4,1.1-2.3,2.4c0,1.3,1.1,2.3,2.3,2.3h2.4c1.3,0,2.4-1,2.4-2.3
						C-394.8,209.1-395.8,208-397.2,208C-397.2,208-397.2,208-397.2,208z"/>
				</g>
			</g>
		</g>
	</g>
</g>
</svg>
