<svg xmlns="http://www.w3.org/2000/svg" width="248.632" height="45.067" viewBox="0 0 248.632 45.067">
  <g id="Group_2026" data-name="Group 2026" transform="translate(-99.592 -87.131)">
    <g id="Group_19" data-name="Group 19" transform="translate(149.223 93.423)">
      <path id="Path_185" data-name="Path 185" d="M323.635-258.81v-10.975h1.147V-241.1h-.5l-.535-1.492a13.48,13.48,0,0,1-6.692,1.683c-6.348,0-7.916-4.245-7.916-9.751s1.568-9.751,7.916-9.751A13.507,13.507,0,0,1,323.635-258.81Zm0,15.258v-14.226a12.235,12.235,0,0,0-6.577-1.606c-5.7,0-6.73,4.4-6.73,8.719s1.033,8.719,6.73,8.719A12.234,12.234,0,0,0,323.635-243.552Z" transform="translate(-309.142 269.785)" stroke="#000" stroke-width="1"/>
      <path id="Path_186" data-name="Path 186" d="M411.361-226.09c6.692,0,7.877,4.13,7.877,9.751s-1.185,9.751-7.877,9.751-7.878-4.13-7.878-9.751S404.669-226.09,411.361-226.09Zm0,18.47c6,0,6.692-3.9,6.692-8.719s-.688-8.719-6.692-8.719-6.692,3.9-6.692,8.719S405.357-207.62,411.361-207.62Z" transform="translate(-383.254 235.459)" stroke="#000" stroke-width="1"/>
      <path id="Path_187" data-name="Path 187" d="M504.495-226.09a18.8,18.8,0,0,1,5.316.765v1.032a18.055,18.055,0,0,0-5.316-.765c-5.7,0-6.73,4.206-6.73,8.719s1.033,8.719,6.73,8.719a18.056,18.056,0,0,0,5.316-.765v1.032a18.8,18.8,0,0,1-5.316.765c-6.348,0-7.916-4.053-7.916-9.751S498.147-226.09,504.495-226.09Z" transform="translate(-456.389 235.459)" stroke="#000" stroke-width="1"/>
      <path id="Path_188" data-name="Path 188" d="M573.622-241.1v-28.681h9.292c9.713,0,12.237,6.195,12.237,14.34s-2.524,14.34-12.237,14.34Zm6.119-5.583h3.289c4.474,0,5.774-3.212,5.774-8.757,0-5.507-1.3-8.757-5.774-8.757h-3.289Z" transform="translate(-516.912 269.785)" fill="#0063ce"/>
      <path id="Path_189" data-name="Path 189" d="M688.54-268a3.607,3.607,0,0,1,3.633,3.633,3.584,3.584,0,0,1-3.633,3.633,3.56,3.56,0,0,1-3.633-3.633A3.583,3.583,0,0,1,688.54-268Zm4.589,28.451a10.522,10.522,0,0,1-1.759.153c-3.288,0-5.889-1.683-5.889-5.392v-14.034h6.08v13.193c0,.727.344,1.147,1.568,1.147Z" transform="translate(-604.336 268.384)" fill="#0063ce"/>
      <path id="Path_190" data-name="Path 190" d="M734.784-227.695a13.561,13.561,0,0,1,4.474.535h6.233v4.092l-2.294.612a12.282,12.282,0,0,1,.191,2.1c0,4.818-2.677,7.342-8.6,7.342a15.982,15.982,0,0,1-1.95-.077,1.164,1.164,0,0,0-.268.727c0,.382.229.612.765.688l7.38.956c4.015.535,5.162,2.524,5.162,5.621,0,5.163-5.927,7.151-11.778,7.151-4.818,0-9.063-1.491-9.063-5.2a4.815,4.815,0,0,1,3.977-4.627,3.343,3.343,0,0,1-1.759-3.1,4.535,4.535,0,0,1,2.027-3.289c-2.1-1.224-3.1-3.251-3.1-6.2C726.18-225.171,728.857-227.695,734.784-227.695Zm-2.639,20.956a2.226,2.226,0,0,0-1.453,1.95c0,1.377,1.032,2.256,4.054,2.256,2.906,0,5.086-.994,5.086-2.256,0-.612-.306-.994-1.071-1.109Zm2.639-10.784c1.874,0,2.792-.956,2.792-2.83s-.918-2.83-2.792-2.83-2.791.956-2.791,2.83S732.91-217.523,734.784-217.523Z" transform="translate(-635.858 236.72)" fill="#0063ce"/>
      <path id="Path_191" data-name="Path 191" d="M830.321-268a3.607,3.607,0,0,1,3.633,3.633,3.584,3.584,0,0,1-3.633,3.633,3.561,3.561,0,0,1-3.633-3.633A3.583,3.583,0,0,1,830.321-268Zm4.589,28.451a10.52,10.52,0,0,1-1.759.153c-3.289,0-5.889-1.683-5.889-5.392v-14.034h6.081v13.193c0,.727.344,1.147,1.568,1.147Z" transform="translate(-715.716 268.384)" fill="#0063ce"/>
      <path id="Path_192" data-name="Path 192" d="M882.212-225.68a14.652,14.652,0,0,1-3.136.382c-5.354,0-7.38-2.256-7.38-6.769v-7.8h-3.1v-4.053l3.1-.841V-248.7l6.119-1.644v5.392h4.742v5.086h-4.742v7.3c0,1.491.574,2.333,2.524,2.333a8.415,8.415,0,0,0,1.874-.229Z" transform="translate(-748.639 254.513)" fill="#0063ce"/>
      <path id="Path_193" data-name="Path 193" d="M950.285-221.424c0-.88-.612-1.338-2.256-1.338a19.252,19.252,0,0,0-6.883,1.453v-5.124a19.7,19.7,0,0,1,6.883-1.262c6.883,0,8.184,2.944,8.184,7.227v12.428h-3.671l-.842-1.453a8.366,8.366,0,0,1-5.621,1.989c-4.857,0-6.5-3.212-6.5-6.08,0-5.163,3.786-5.927,7.227-6.272l3.48-.344Zm-2.562,4.895c-1.721.229-2.409,1.071-2.409,2.562a2.1,2.1,0,0,0,2.218,2.256,3.926,3.926,0,0,0,2.753-.918v-4.245Z" transform="translate(-804.4 236.72)" fill="#0063ce"/>
      <path id="Path_194" data-name="Path 194" d="M1039.072-240.951a10.52,10.52,0,0,1-1.759.153c-3.288,0-5.889-1.682-5.889-5.392v-23.595h6.08v22.753c0,.727.344,1.147,1.568,1.147Z" transform="translate(-876.552 269.785)" fill="#0063ce"/>
      <path id="Path_195" data-name="Path 195" d="M1080.268-215.573c-.153,2.486,1.147,3.212,4.13,3.212a14.49,14.49,0,0,0,6.386-1.262v4.78a19.622,19.622,0,0,1-7.189,1.338c-6.31,0-9.369-3.212-9.369-10.1s3.021-10.1,8.948-10.1c8.183,0,8.757,6.118,8.26,12.122Zm0-3.748h5.431c.344-2.1-.115-3.786-2.448-3.786C1081.185-223.106,1080.268-221.73,1080.268-219.32Z" transform="translate(-910.177 236.72)" fill="#0063ce"/>
      <path id="Path_196" data-name="Path 196" d="M1179.264-221.577a16.5,16.5,0,0,0-6.157-1.224c-1.721,0-2.677.382-2.677,1.338,0,.994.65,1.224,1.912,1.338,6.042.535,7.725,2.141,7.725,6.118,0,3.671-2.179,6.5-8.642,6.5a17.321,17.321,0,0,1-6.96-1.224v-5.124a18.565,18.565,0,0,0,6.807,1.453c1.95,0,2.83-.383,2.83-1.339,0-.994-.651-1.224-1.912-1.338-6.042-.535-7.725-2.141-7.725-6.119,0-3.9,2.524-6.5,8.413-6.5a15.224,15.224,0,0,1,6.386.994Z" transform="translate(-981.066 236.72)" fill="#0063ce"/>
    </g>
    <g id="Group_2024" data-name="Group 2024" transform="translate(99.592 87.131)">
      <g id="Group_43" data-name="Group 43" transform="translate(0 0)">
        <path id="Path_83" data-name="Path 83" d="M169.558,418.841v20.1h15.454v-20.1Zm1.486,3.8h12.174v.823H171.044Zm12.191,4.6v.823H171.061v-.823Zm-12.225-3.1h12.174v.823H171.01Zm.034,1.629h12.174v.823H171.044Zm6.224,8.076h-6.207v-.823h6.207Zm5.967-1.44H171.061v-.823h12.174Zm0-1.44H171.061v-.823h12.174Zm.017-1.474H171.078v-.823h12.174Z" transform="translate(-148.771 -411.834)" fill="#0363ce"/>
        <path id="Path_84" data-name="Path 84" d="M56.592,481.149H75.676V456.424H56.592ZM58.8,460.642H73.652v.892H58.8Zm0,1.663H73.652v.892H58.8Zm0,1.8H73.652V465H58.8Zm0,1.852H73.652v.892H58.8Zm0,1.663H73.652v.892H58.8Zm0,1.8H73.652v.892H58.8Zm0,1.818H73.652v.891H58.8Zm0,1.852h7.664v.891H58.8Z" transform="translate(-56.592 -442.501)" fill="#0363ce"/>
        <path id="Path_85" data-name="Path 85" d="M108.261,392.9h9.61V380.762h-9.61Zm5.278-3.555h-4.207v-.493h4.207Zm3.3-1.251h-7.51V387.6h7.51Zm0-1.175h-7.51v-.493h7.51Zm0-1.15h-7.51v-.493h7.51Zm-7.51-2.882h7.51v.493h-7.51Zm-.034,1.194h7.51v.493H109.3Z" transform="translate(-98.753 -380.762)" fill="#0363ce"/>
      </g>
    </g>
  </g>
</svg>
