<?xml version="1.0" encoding="utf-8"?>
<!-- Generator: Adobe Illustrator 19.0.0, SVG Export Plug-In . SVG Version: 6.00 Build 0)  -->
<svg version="1.1" id="Layer_1" xmlns="http://www.w3.org/2000/svg" xmlns:xlink="http://www.w3.org/1999/xlink" x="0px" y="0px"
	 viewBox="-402 208 154 145" style="enable-background:new -402 208 154 145;" xml:space="preserve">
<style type="text/css">
	.st0{fill:none;}
	.st1{fill:#088BBD;}
	.st2{fill:#30D0C7;}
</style>
<g id="Group_153" transform="translate(-4072 406)">
	<rect id="Rectangle_68" x="3670" y="-198" class="st0" width="154" height="145"/>
	<g id="Group_150" transform="translate(4093 -404)">
		<path id="Path_94" class="st1" d="M-306,348.4c8.8-1.5,15.2-9.2,15.2-18.1v-82.4c0-0.9-0.3-1.7-0.9-2.4l-34.6-36.4
			c-0.6-0.7-1.5-1.1-2.4-1.1h-54.9c-8.9,0-16.6,6.5-18.1,15.3l-0.2,7.1v99.9c0,10.2,8.2,18.4,18.3,18.5h70.6L-306,348.4z
			 M-325.5,220l23.4,24.4h-15.1c-4.5,0-8.2-3.6-8.3-8.1V220z M-309.1,342h-74.5c-6.4-0.1-11.5-5.3-11.5-11.7V226.5
			c0-6.4,5.1-11.6,11.5-11.7h51.4v21.5c0.1,8.3,6.8,14.9,15.1,14.9h19.6v79.1C-297.6,336.7-302.7,341.9-309.1,342z"/>
		<path id="Path_95" class="st1" d="M-318.4,320.2h-56c-1.9,0-3.4,1.5-3.4,3.4c0,1.9,1.5,3.4,3.4,3.4c0,0,0,0,0,0h56
			c1.9,0,3.4-1.5,3.4-3.4S-316.5,320.2-318.4,320.2L-318.4,320.2z"/>
		<path id="Path_96" class="st2" d="M-346.4,301.1c-4.8,0-8.7-3.9-8.7-8.7c0-1.9-1.5-3.4-3.4-3.4c-1.9,0-3.4,1.5-3.4,3.4l0,0
			c0,7.1,4.8,13.2,11.6,15v3.3c0,1.9,1.5,3.4,3.4,3.4c1.9,0,3.4-1.5,3.4-3.4c0,0,0,0,0,0v-3.1c8.4-1.6,13.9-9.7,12.3-18.1
			c-1.4-7.3-7.8-12.6-15.2-12.6c-4.8,0-8.7-3.9-8.7-8.7c0-4.8,3.9-8.7,8.7-8.7c4.8,0,8.7,3.9,8.7,8.7c0,1.9,1.5,3.4,3.4,3.4
			c1.9,0,3.4-1.5,3.4-3.4c0,0,0,0,0,0c0-7.4-5.3-13.8-12.6-15.2v-2.5c0-1.9-1.5-3.4-3.4-3.4c-1.9,0-3.4,1.5-3.4,3.4c0,0,0,0,0,0v2.7
			c-8.3,2.2-13.3,10.7-11.1,18.9c1.8,6.8,7.9,11.6,15,11.6c4.8,0,8.7,3.9,8.7,8.7C-337.7,297.2-341.6,301.1-346.4,301.1
			L-346.4,301.1z"/>
	</g>
</g>
</svg>
