<?xml version="1.0" encoding="utf-8"?>
<!-- Generator: Adobe Illustrator 19.0.0, SVG Export Plug-In . SVG Version: 6.00 Build 0)  -->
<svg version="1.1" id="Layer_1" xmlns="http://www.w3.org/2000/svg" xmlns:xlink="http://www.w3.org/1999/xlink" x="0px" y="0px"
	 viewBox="-402 208 154 145" style="enable-background:new -402 208 154 145;" xml:space="preserve">
<style type="text/css">
	.st0{fill:none;}
	.st1{fill:#088BBD;}
	.st2{fill:#30D0C7;}
</style>
<g id="Group_152" transform="translate(-3899 406)">
	<rect id="Rectangle_69" x="3497" y="-198" class="st0" width="154" height="145"/>
	<g id="Group_151" transform="translate(3904 -406)">
		<path id="Path_84" class="st1" d="M-267.4,311.6h-0.4c-1.4,0-2.9,0.3-4.2,0.9l-29.3,13.5h-10.9c3.3-5,2-11.7-3-15
			c-1.8-1.2-3.9-1.8-6-1.8h-32.5c-0.6,0-1.2,0.3-1.7,0.7l-8.9,8.9h-13.5v-2.4c0-1.3-1.1-2.4-2.4-2.4h-19.3c-1.3,0-2.4,1.1-2.4,2.4
			v33.7c0,1.3,1.1,2.4,2.4,2.4h19.3c1.3,0,2.4-1.1,2.4-2.4h79.5c0.4,0,0.8-0.1,1.2-0.3l34.7-19.5c4.8-2.7,6.5-8.8,3.8-13.6
			C-260.5,313.6-263.8,311.6-267.4,311.6L-267.4,311.6z M-382.7,347.8h-14.5v-28.9h14.5L-382.7,347.8z M-264.9,326.2l-34.1,19.2
			h-78.9v-21.7h14.5c0.6,0,1.2-0.3,1.7-0.7l8.9-8.9h31.5c3.3,0,6,2.7,6,6s-2.7,6-6,6h-20.5v4.8h41c0.3,0,0.7-0.1,1-0.2l29.8-13.8
			c0.7-0.3,1.4-0.5,2.2-0.5h0.4c2.9,0,5.2,2.3,5.2,5.2C-262.2,323.5-263.2,325.2-264.9,326.2L-264.9,326.2z"/>
		<path id="Path_85" class="st1" d="M-329.7,208c-26.6,0-48.2,21.6-48.2,48.2s21.6,48.2,48.2,48.2c26.6,0,48.2-21.6,48.2-48.2l0,0
			C-281.5,229.6-303.1,208-329.7,208z M-329.7,299.6c-24,0-43.4-19.4-43.4-43.4c0-24,19.4-43.4,43.4-43.4s43.4,19.4,43.4,43.4
			c0,0,0,0,0,0C-286.4,280.1-305.8,299.5-329.7,299.6z"/>
		<path id="Path_86" class="st2" d="M-298.9,233.1l-3.9,2.9c4.4,5.8,6.8,12.9,6.7,20.2c0,18.6-15.1,33.7-33.7,33.7
			s-33.7-15.1-33.7-33.7s15.1-33.7,33.7-33.7c5.5,0,10.9,1.3,15.7,3.9l2.3-4.3c-18.8-9.9-42.2-2.7-52.1,16.1s-2.7,42.2,16.1,52.1
			c18.8,9.9,42.2,2.7,52.1-16.1c2.9-5.5,4.5-11.7,4.5-18C-291.1,247.8-293.8,239.7-298.9,233.1z"/>
		<path id="Path_87" class="st2" d="M-303.5,227.9c-1-0.9-2-1.8-3.1-2.6l-2.9,3.9c0.9,0.7,1.8,1.5,2.7,2.3L-303.5,227.9z"/>
		<path id="Path_88" class="st1" d="M-332.1,239.3h4.8c4,0,7.2,3.2,7.2,7.2h4.8c0-6.7-5.4-12-12.1-12v-4.8h-4.8v4.8
			c-6.7,0-12.1,5.4-12.1,12.1s5.4,12.1,12.1,12.1h4.8c4,0,7.2,3.2,7.2,7.2s-3.2,7.2-7.2,7.2h-4.8c-4,0-7.2-3.2-7.2-7.2h-4.8
			c0,6.7,5.4,12,12,12.1v4.8h4.8v-4.8c6.7,0,12-5.4,12-12.1c0-6.7-5.4-12-12-12h-4.8c-4,0-7.2-3.2-7.2-7.2
			C-339.3,242.6-336.1,239.3-332.1,239.3L-332.1,239.3z"/>
		<path id="Path_89" class="st1" d="M-308,253.8h4.8v4.8h-4.8V253.8z"/>
		<path id="Path_90" class="st1" d="M-356.2,253.8h4.8v4.8h-4.8V253.8z"/>
		<path id="Path_91" class="st2" d="M-293.6,292.3h4.8v4.8h-4.8V292.3z"/>
		<path id="Path_92" class="st2" d="M-293.6,302h4.8v14.5h-4.8V302z"/>
		<path id="Path_93" class="st1" d="M-305.6,306.8h4.8v14.5h-4.8V306.8z"/>
	</g>
</g>
</svg>
