<?xml version="1.0" encoding="utf-8"?>
<!-- Generator: Adobe Illustrator 19.0.0, SVG Export Plug-In . SVG Version: 6.00 Build 0)  -->
<svg version="1.1" id="Layer_1" xmlns="http://www.w3.org/2000/svg" xmlns:xlink="http://www.w3.org/1999/xlink" x="0px" y="0px"
	 viewBox="-442 243 75 75" style="enable-background:new -442 243 75 75;" xml:space="preserve">
<style type="text/css">
	.st0{fill:none;}
	.st1{fill:#FFFFFF;}
	.st2{fill:#30D0C7;}
</style>
<g id="Group_34" transform="translate(0.202 0.101)">
	<rect id="Rectangle_29" x="-442.2" y="242.9" class="st0" width="75" height="75"/>
	<g id="file_1_" transform="translate(4.737 1.599)">
		<path id="Path_2" class="st1" d="M-408.6,248.2l10.2,10.7h-6.6c-2,0-3.6-1.6-3.6-3.6L-408.6,248.2z M-416.6,301.4H-434v0
			c-2.8,0-5-2.2-5-5c0,0,0,0,0-0.1V251c0-2.8,2.2-5,5-5.1c0,0,0,0,0,0h22.5v9.3c0,3.6,2.9,6.6,6.5,6.6h8.6v11.6l3,0.4v-13.5
			c0-0.4-0.2-0.8-0.4-1l-15.1-15.9c-0.3-0.3-0.7-0.5-1.1-0.5h-24c-4.4,0-8,3.6-8,8c0,0,0,0,0,0v45.4c0,4.4,3.5,8,7.9,8
			c0,0,0,0,0.1,0h18.9 M-416.5,286.1H-430c-0.8,0-1.5,0.7-1.5,1.5c0,0.8,0.7,1.5,1.5,1.5h12.5 M-411.1,278.5H-430
			c-0.8,0-1.5,0.7-1.5,1.5c0,0.8,0.7,1.5,1.5,1.5h16.1"/>
		<path id="Path_3" d="M-430,274.1h15.1c0.8,0,1.5-0.7,1.5-1.5c0-0.8-0.7-1.5-1.5-1.5H-430c-0.8,0-1.5,0.7-1.5,1.5
			C-431.5,273.4-430.8,274-430,274.1z"/>
		<path id="Path_4" class="st1" d="M-430,274.1h15.1c0.8,0,1.5-0.7,1.5-1.5c0-0.8-0.7-1.5-1.5-1.5H-430c-0.8,0-1.5,0.7-1.5,1.5
			C-431.5,273.4-430.8,274-430,274.1z"/>
		<g id="Group_23" transform="translate(23.967 30.415)">
			<path id="Path_5" class="st2" d="M-413.9,263.2l-6.1,6.6v-16.2c0-0.8-0.7-1.5-1.5-1.5c-0.8,0-1.5,0.7-1.5,1.5v16.2l-6.2-6.6
				c-0.6-0.6-1.5-0.6-2.1-0.1c-0.6,0.5-0.6,1.5-0.1,2.1c0,0,0,0,0,0l8.7,9.3c0.6,0.6,1.5,0.6,2.1,0.1c0,0,0.1,0,0.1-0.1l8.7-9.3
				c0.6-0.6,0.6-1.5,0-2.1S-413.3,262.5-413.9,263.2C-413.9,263.1-413.9,263.1-413.9,263.2L-413.9,263.2z"/>
			<g id="Group_22">
				<path id="Path_6" class="st2" d="M-421.5,243c-11.3,0-20.5,9.2-20.5,20.5c0,11.3,9.2,20.5,20.5,20.5c11.3,0,20.5-9.2,20.5-20.5
					l0,0C-401.1,252.2-410.2,243-421.5,243C-421.5,243-421.5,243-421.5,243z M-421.5,280.9c-9.6,0-17.5-7.8-17.5-17.5
					c0-9.6,7.8-17.5,17.5-17.5c9.6,0,17.5,7.8,17.5,17.5C-404.1,273.1-411.9,280.9-421.5,280.9z"/>
			</g>
		</g>
	</g>
</g>
</svg>
