<?xml version="1.0" encoding="utf-8"?>
<!-- Generator: Adobe Illustrator 19.0.0, SVG Export Plug-In . SVG Version: 6.00 Build 0)  -->
<svg version="1.1" id="Layer_1" xmlns="http://www.w3.org/2000/svg" xmlns:xlink="http://www.w3.org/1999/xlink" x="0px" y="0px"
	 viewBox="-442 243 75 75" style="enable-background:new -442 243 75 75;" xml:space="preserve">
<style type="text/css">
	.st0{fill:none;}
	.st1{fill:#30D0C7;}
	.st2{fill:#FFFFFF;}
</style>
<g id="Group_36" transform="translate(0 0.101)">
	<rect id="Rectangle_28" x="-442" y="242.9" class="st0" width="75" height="75"/>
	<g id="Group_30" transform="translate(0.77 0.681)">
		<path id="Union_4" class="st1" d="M-420.4,289.3v-18.5c0-4.2,8-6.2,15.4-6.2c7.4,0,15.4,1.9,15.4,6.2v18.5c0,4.2-8,6.2-15.4,6.2
			C-412.4,295.5-420.4,293.5-420.4,289.3z M-417.3,289.3c0,0.8,4.2,3.1,12.3,3.1s12.3-2.3,12.3-3.1v-5.4c-3,1.5-7.8,2.3-12.3,2.3
			s-9.3-0.7-12.3-2.3V289.3z M-417.3,280c0,0.8,4.2,3.1,12.3,3.1s12.3-2.3,12.3-3.1v-5.4c-3,1.5-7.8,2.3-12.3,2.3s-9.3-0.7-12.3-2.3
			C-417.3,274.7-417.3,280-417.3,280z M-417.3,270.8c0,0.8,4.2,3.1,12.3,3.1s12.3-2.3,12.3-3.1s-4.2-3.1-12.3-3.1
			S-417.3,270-417.3,270.8z"/>
		<path id="Union_2" class="st2" d="M-441.1,288.1c-0.6-2.6-0.9-5.3-0.9-8.1c0-20.4,16.5-37,37-37c10.7,0,20.8,4.6,27.8,12.6v-11.1
			c0-0.9,0.7-1.5,1.5-1.5s1.5,0.7,1.5,1.5c0,0,0,0,0,0V260c0,0.9-0.7,1.5-1.5,1.5h-15.4c-0.9,0-1.5-0.7-1.5-1.5s0.7-1.5,1.5-1.5l0,0
			h12.2c-12-14.4-33.4-16.4-47.8-4.5c-9.8,8.1-14.2,21-11.5,33.4c0.2,0.8-0.3,1.7-1.2,1.8c0,0,0,0,0,0c-0.1,0-0.2,0-0.3,0
			C-440.3,289.3-441,288.8-441.1,288.1z"/>
		<path id="Union_3" class="st2" d="M-432.7,304.5l0.1,11c0,0.9-0.7,1.5-1.5,1.6c0,0,0,0,0,0h0c-0.8,0-1.5-0.7-1.5-1.5l-0.2-15.4
			c0-0.9,0.7-1.6,1.5-1.6c0,0,0,0,0,0h15.4c0.9,0,1.5,0.7,1.5,1.5s-0.7,1.5-1.5,1.5h-12.2c11.9,14.5,33.3,16.5,47.7,4.6
			c7.8-6.5,12.4-16.1,12.3-26.2c0-2.5-0.3-4.9-0.8-7.4c-0.2-0.8,0.4-1.6,1.2-1.8c0.8-0.2,1.6,0.3,1.8,1.1c0.6,2.6,0.9,5.4,0.9,8.1
			c0,20.4-16.5,37-37,37C-415.5,317.1-425.7,312.5-432.7,304.5z"/>
	</g>
</g>
</svg>
