<?xml version="1.0" encoding="utf-8"?>
<!-- Generator: Adobe Illustrator 19.0.0, SVG Export Plug-In . SVG Version: 6.00 Build 0)  -->
<svg version="1.1" id="Layer_1" xmlns="http://www.w3.org/2000/svg" xmlns:xlink="http://www.w3.org/1999/xlink" x="0px" y="0px"
	 viewBox="-442 243 75 75" style="enable-background:new -442 243 75 75;" xml:space="preserve">
<style type="text/css">
	.st0{fill:none;}
	.st1{fill:#FFFFFF;}
	.st2{fill:#30D0C7;}
</style>
<g id="Group_35" transform="translate(0.021 0.101)">
	<rect id="Rectangle_25" x="-442" y="242.9" class="st0" width="75" height="75"/>
	<g id="Group_28" transform="translate(0.646 3.562)">
		<g id="Group_25" transform="translate(0 0)">
			<g id="Group_24">
				<path id="Path_7" class="st1" d="M-405.7,249.6l-15.6-6.5c-1.1-0.4-2.3,0.1-2.8,1.2l-6.3,15.3l-11.1,13.4
					c-0.4,0.5-0.6,1.3-0.4,1.9l6,21.2c0.3,1.1,1.5,1.8,2.6,1.5c0.2,0,0.3-0.1,0.5-0.2l19.3-10.7c0.6-0.3,1-1,1.1-1.7l1.6-17.3
					l6.3-15.3C-404.1,251.3-404.6,250.1-405.7,249.6C-405.7,249.6-405.7,249.6-405.7,249.6z M-416.6,283.5l-12.9,7.2l5.5-13.3
					c0.4-1.1-0.1-2.3-1.2-2.8c-1.1-0.4-2.3,0.1-2.8,1.1l-5.5,13.3l-4-14.2l9.6-11.6l6.4,2.6l6.4,2.6L-416.6,283.5z M-414.1,264.4
					l-8.3-3.4l-3.4-1.4l4.8-11.7l11.7,4.8L-414.1,264.4z"/>
			</g>
		</g>
		<g id="Group_27" transform="translate(0 36.779)">
			<g id="Group_26" transform="translate(0 0)">
				<path id="Path_8" class="st2" d="M-371.5,243h-22.8c-5-0.1-9,3.9-9.1,8.9c-0.1,5,3.9,9,8.9,9.1c0.1,0,0.1,0,0.2,0
					c2.6,0,4.7,2.1,4.7,4.7s-2.1,4.7-4.7,4.7h-45.6c-1.2,0-2.1,1-2.1,2.1s1,2.1,2.1,2.1c0,0,0,0,0,0h45.6c5-0.1,8.9-4.1,8.9-9.1
					c-0.1-4.9-4-8.8-8.9-8.9c-2.6,0-4.7-2.1-4.7-4.7s2.1-4.7,4.7-4.7h22.8c1.2,0,2.1-1,2.1-2.1C-369.3,244-370.3,243-371.5,243
					L-371.5,243z"/>
			</g>
		</g>
	</g>
</g>
</svg>
