<?xml version="1.0" encoding="utf-8"?>
<!-- Generator: Adobe Illustrator 19.0.0, SVG Export Plug-In . SVG Version: 6.00 Build 0)  -->
<svg version="1.1" id="Layer_1" xmlns="http://www.w3.org/2000/svg" xmlns:xlink="http://www.w3.org/1999/xlink" x="0px" y="0px"
	 viewBox="-402 208 154.1 145" style="enable-background:new -402 208 154.1 145;" xml:space="preserve">
<style type="text/css">
	.st0{fill:none;}
	.st1{fill:#088BBD;}
	.st2{fill:#30D0C7;}
</style>
<g id="Group_154" transform="translate(-4269 406)">
	<rect id="Rectangle_67" x="3867" y="-198" class="st0" width="154" height="145"/>
	<g id="Group_149" transform="translate(4269 -404)">
		<path id="Path_80" class="st1" d="M-268.6,228.7c-27.6-27.6-72.3-27.6-99.9,0c-0.2,0.2-0.4,0.4-0.6,0.6c-1.5,1.5-1.4,3.9,0.1,5.4
			c1.5,1.4,3.9,1.4,5.4-0.1c24.3-24.9,64.2-25.4,89.2-1.1s25.4,64.2,1.1,89.2c-24.3,24.9-64.2,25.4-89.2,1.1
			c-12.2-11.9-19-28.2-19-45.2v-0.8l6.3,6.3c0.7,0.7,1.7,1.1,2.7,1.1c1,0,2-0.4,2.7-1.1c1.5-1.5,1.5-3.9,0-5.4c0,0,0,0,0,0
			l-12.8-12.8c-1.5-1.5-3.9-1.5-5.4,0c0,0,0,0,0,0l-12.8,12.8c-1.5,1.5-1.4,3.9,0.1,5.4c1.5,1.4,3.8,1.4,5.3,0l6.3-6.3v0.8
			c0,39,31.6,70.7,70.7,70.7c18.7,0,36.7-7.4,50-20.7C-241,301-241,256.3-268.6,228.7L-268.6,228.7z"/>
		<path id="Path_81" class="st2" d="M-298.3,253l-46.7,46.7c-1.5,1.5-1.5,3.9,0,5.4c0.7,0.7,1.7,1.1,2.7,1.1c1,0,2-0.4,2.7-1.1
			l46.7-46.7c1.5-1.5,1.5-3.9,0-5.4S-296.9,251.5-298.3,253L-298.3,253L-298.3,253z"/>
		<path id="Path_82" class="st2" d="M-310.6,284.4c-5.3,5.3-5.3,14,0,19.3c5.3,5.3,14,5.3,19.3,0c5.3-5.3,5.3-14,0-19.3
			c-2.6-2.6-6-4-9.6-4C-304.6,280.4-308,281.9-310.6,284.4z M-296.7,298.3c-1.1,1.1-2.7,1.8-4.2,1.7c-3.3,0-6-2.7-6-6
			c0-1.6,0.6-3.1,1.8-4.3c1.1-1.1,2.7-1.8,4.2-1.7c3.3,0,6,2.7,6,6C-294.9,295.6-295.6,297.2-296.7,298.3z"/>
		<path id="Path_83" class="st2" d="M-336.1,249.6c-7.5,0-13.6,6.1-13.7,13.6c0,7.5,6.1,13.6,13.6,13.7c7.5,0,13.6-6.1,13.7-13.6
			c0-3.6-1.4-7.1-4-9.7C-329,251-332.5,249.6-336.1,249.6z M-331.8,267.5c-1.1,1.1-2.7,1.8-4.2,1.7c-1.6,0-3.1-0.6-4.2-1.7
			c-1.1-1.1-1.8-2.7-1.7-4.2c0-1.6,0.6-3.1,1.7-4.2c1.1-1.1,2.7-1.8,4.2-1.7c1.6,0,3.1,0.6,4.2,1.7
			C-329.5,261.3-329.5,265.1-331.8,267.5L-331.8,267.5z"/>
	</g>
</g>
</svg>
